<svg width="26" height="25" viewBox="0 0 26 25" fill="none" xmlns="http://www.w3.org/2000/svg">
<path d="M12.7612 0C10.289 0 7.87222 0.733112 5.81661 2.10663C3.76099 3.48015 2.15884 5.43238 1.21274 7.71646C0.266647 10.0005 0.0191049 12.5139 0.50142 14.9386C0.983735 17.3634 2.17424 19.5907 3.9224 21.3388C5.67056 23.087 7.89784 24.2775 10.3226 24.7598C12.7474 25.2421 15.2607 24.9946 17.5448 24.0485C19.8288 23.1024 21.7811 21.5002 23.1546 19.4446C24.5281 17.389 25.2612 14.9723 25.2612 12.5C25.2576 9.18589 23.9395 6.00855 21.5961 3.66512C19.2527 1.3217 16.0753 0.00358446 12.7612 0ZM12.7612 22.9167C10.701 22.9167 8.68706 22.3057 6.97404 21.1611C5.26103 20.0165 3.9259 18.3897 3.13749 16.4863C2.34908 14.5829 2.14279 12.4884 2.54472 10.4678C2.94665 8.44717 3.93874 6.5911 5.39554 5.1343C6.85234 3.67751 8.70841 2.68542 10.729 2.28349C12.7497 1.88156 14.8441 2.08784 16.7475 2.87625C18.6509 3.66467 20.2778 4.9998 21.4224 6.71281C22.567 8.42582 23.1779 10.4398 23.1779 12.5C23.1749 15.2617 22.0764 17.9095 20.1236 19.8623C18.1707 21.8152 15.523 22.9136 12.7612 22.9167Z" fill="white"/>
<path d="M12.7612 10.4167H11.7195C11.4433 10.4167 11.1783 10.5264 10.983 10.7218C10.7876 10.9171 10.6779 11.1821 10.6779 11.4583C10.6779 11.7346 10.7876 11.9995 10.983 12.1949C11.1783 12.3902 11.4433 12.5 11.7195 12.5H12.7612V18.75C12.7612 19.0263 12.8709 19.2912 13.0663 19.4866C13.2616 19.6819 13.5266 19.7917 13.8029 19.7917C14.0791 19.7917 14.3441 19.6819 14.5394 19.4866C14.7348 19.2912 14.8445 19.0263 14.8445 18.75V12.5C14.8445 11.9475 14.625 11.4176 14.2343 11.0269C13.8436 10.6362 13.3137 10.4167 12.7612 10.4167Z" fill="white"/>
<path d="M12.7612 8.33334C13.6242 8.33334 14.3237 7.63379 14.3237 6.77084C14.3237 5.9079 13.6242 5.20834 12.7612 5.20834C11.8983 5.20834 11.1987 5.9079 11.1987 6.77084C11.1987 7.63379 11.8983 8.33334 12.7612 8.33334Z" fill="white"/>
</svg>
