<svg width="26" height="25" viewBox="0 0 26 25" fill="none" xmlns="http://www.w3.org/2000/svg">
<path d="M4.28916 19.7347C4.09542 20.0676 3.74648 20.2549 3.38608 20.2549C3.209 20.2549 3.02985 20.2102 2.86527 20.1155C1.2591 19.1873 0.26123 17.461 0.26123 15.6087V7.28408C0.262272 4.41519 2.59862 2.08117 5.47035 2.08117V1.04058C5.47035 0.466181 5.937 0 6.51197 0C7.08694 0 7.55359 0.466181 7.55359 1.04058V2.08117H14.8449V1.04058C14.8449 0.466181 15.3105 0 15.8865 0C16.4625 0 16.9281 0.466181 16.9281 1.04058V2.08117C19.7999 2.08117 22.1362 4.41519 22.1362 7.28408V15.6087C22.1362 16.1831 21.6706 16.6493 21.0946 16.6493C20.5186 16.6493 20.053 16.1831 20.053 15.6087V9.36524H19.0114C18.4354 9.36524 17.9697 8.89906 17.9697 8.32466C17.9697 7.75026 18.4354 7.28408 19.0114 7.28408H20.053C20.053 5.56296 18.651 4.16233 16.9281 4.16233H5.47035C3.74752 4.16233 2.3455 5.56296 2.3455 7.28408H10.6784C11.2534 7.28408 11.7201 7.75026 11.7201 8.32466C11.7201 8.89906 11.2534 9.36524 10.6784 9.36524H2.3455V15.6087C2.3455 16.7201 2.94443 17.7565 3.90793 18.3132C4.40582 18.6004 4.57769 19.2373 4.28916 19.7347ZM21.8841 19.334L17.9791 17.8762V12.6264C17.9791 11.0489 16.8583 9.67742 15.372 9.436C14.4543 9.2872 13.5304 9.54214 12.8315 10.1363C12.1315 10.7305 11.7294 11.5983 11.7294 12.5151V20.385L10.6722 19.5442C10.6649 19.538 10.6555 19.538 10.6482 19.5317C9.38683 18.436 7.47234 18.5172 6.3224 19.7471C5.14537 21.0042 5.21203 22.9834 6.45781 24.1488L7.03903 24.7086C7.23277 24.8959 7.49213 25 7.76191 25C8.69936 25 9.15976 23.8606 8.48479 23.2102L7.89315 22.64C7.47338 22.2466 7.45151 21.5858 7.84524 21.1665C8.23585 20.7482 8.89519 20.7284 9.31392 21.1165C9.32433 21.1259 12.1232 23.3548 12.1232 23.3548C12.4367 23.6046 12.8658 23.6514 13.2241 23.4787C13.5845 23.3049 13.8137 22.9407 13.8137 22.5411V12.512C13.8137 12.206 13.9481 11.9168 14.1814 11.718C14.4189 11.5172 14.7209 11.4339 15.0376 11.486C15.5199 11.565 15.8969 12.0645 15.8969 12.6233V18.5952C15.8969 19.0291 16.1667 19.4183 16.574 19.5702L21.1561 21.281C22.306 21.7097 23.0997 22.7773 23.1799 23.999C23.2164 24.5494 23.6747 24.9719 24.2184 24.9719C24.2413 24.9719 24.2642 24.9719 24.2872 24.9698C24.8611 24.9313 25.2965 24.436 25.259 23.8637C25.1246 21.8262 23.8007 20.0479 21.8841 19.334Z" fill="white"/>
</svg>
