<svg width="28" height="25" viewBox="0 0 28 25" fill="none" xmlns="http://www.w3.org/2000/svg">
<path d="M21.6362 4.54545H19.2996C18.9216 2.38295 17.3275 0.597727 15.1664 0.0363636C14.5712 -0.119318 13.9525 0.246591 13.7961 0.853409C13.6409 1.46136 14.0042 2.08068 14.6061 2.23636C16.0956 2.62386 17.1362 3.98182 17.1362 5.53864V18.1818H4.76123C3.52036 18.1818 2.51123 17.1625 2.51123 15.9091V11.3636H5.32373C5.94586 11.3636 6.44873 10.8545 6.44873 10.2273C6.44873 9.6 5.94586 9.09091 5.32373 9.09091H2.51123C1.27036 9.09091 0.26123 10.1102 0.26123 11.3636V15.9091C0.26123 18.0455 1.72823 19.842 3.69811 20.3261C3.65761 20.5545 3.63623 20.7875 3.63623 21.0227C3.63623 23.2159 5.40248 25 7.57373 25C9.74498 25 11.5112 23.2159 11.5112 21.0227C11.5112 20.8307 11.4966 20.642 11.4696 20.4545H16.0529C16.0259 20.642 16.0112 20.8307 16.0112 21.0227C16.0112 23.2159 17.7775 25 19.9487 25C22.12 25 23.8862 23.2159 23.8862 21.0227C23.8862 20.7875 23.8649 20.5545 23.8244 20.3261C25.7942 19.842 27.2612 18.0455 27.2612 15.9091V10.2273C27.2612 7.09432 24.7379 4.54545 21.6362 4.54545ZM25.0112 10.2273V11.3636H19.3862V6.81818H21.6362C23.497 6.81818 25.0112 8.34773 25.0112 10.2273ZM9.26123 21.0227C9.26123 21.9625 8.50411 22.7273 7.57373 22.7273C6.64336 22.7273 5.88623 21.9625 5.88623 21.0227C5.88623 20.808 5.92786 20.6182 5.98861 20.4545H9.15998C9.22073 20.6182 9.26236 20.808 9.26236 21.0227H9.26123ZM19.9487 22.7273C19.0184 22.7273 18.2612 21.9625 18.2612 21.0227C18.2612 20.808 18.3029 20.6182 18.3636 20.4545H21.535C21.5957 20.6182 21.6374 20.808 21.6374 21.0227C21.6374 21.9625 20.8791 22.7273 19.9487 22.7273ZM22.7612 18.1818H19.3862V13.6364H25.0112V15.9091C25.0112 17.1625 24.0021 18.1818 22.7612 18.1818ZM0.26123 1.13636C0.26123 0.509091 0.764105 0 1.38623 0H10.5595C11.1816 0 11.6845 0.509091 11.6845 1.13636C11.6845 1.76364 11.1816 2.27273 10.5595 2.27273H1.38623C0.764105 2.27273 0.26123 1.76364 0.26123 1.13636ZM0.26123 5.68182C0.26123 5.05455 0.764105 4.54545 1.38623 4.54545H8.30948C8.93161 4.54545 9.43448 5.05455 9.43448 5.68182C9.43448 6.30909 8.93161 6.81818 8.30948 6.81818H1.38623C0.764105 6.81818 0.26123 6.30909 0.26123 5.68182Z" fill="white"/>
</svg>
