<svg width="21" height="25" viewBox="0 0 21 25" fill="none" xmlns="http://www.w3.org/2000/svg">
<path d="M6.48017 9.89578C6.48017 10.4697 6.61586 11.0135 6.85755 11.4968C6.33812 12.151 6.01479 12.9625 5.97133 13.8468C4.97379 12.8177 4.36001 11.426 4.36001 9.89682C4.36001 6.34368 7.66958 3.53534 11.4191 4.29159C13.6262 4.73742 15.4145 6.4843 15.8852 8.64994C16.0272 9.30411 16.0537 9.94473 15.9817 10.5572C15.9202 11.076 15.4569 11.4593 14.9248 11.4593H14.8771C14.2495 11.4593 13.8085 10.9104 13.8774 10.2979C13.924 9.8864 13.8997 9.45411 13.7926 9.01348C13.4767 7.70827 12.3933 6.65097 11.0629 6.34993C8.63955 5.80305 6.47911 7.60723 6.47911 9.89682L6.48017 9.89578ZM2.35646 8.54681C2.64692 6.88743 3.47272 5.37493 4.7533 4.19471C6.37416 2.702 8.49644 1.9645 10.7215 2.09991C14.912 2.36658 18.1887 5.97389 18.14 10.2927C18.1198 12.101 16.5785 13.5406 14.7392 13.5406H12.1887C11.93 12.677 11.1265 12.0416 10.1639 12.0416C8.99255 12.0416 8.04378 12.9739 8.04378 14.125C8.04378 15.276 8.99255 16.2083 10.1639 16.2083C10.7343 16.2083 11.2505 15.9843 11.6311 15.6239H14.7392C17.7276 15.6239 20.2177 13.2854 20.2601 10.3499C20.3386 4.91138 16.181 0.359282 10.8583 0.021781C8.03424 -0.158428 5.35542 0.784284 3.30417 2.67596C1.71511 4.1395 0.65821 6.07701 0.277642 8.1614C0.162093 8.79473 0.671992 9.37598 1.32606 9.37598C1.82642 9.37598 2.27271 9.03327 2.35646 8.54785V8.54681ZM10.1904 17.7083C6.27345 17.7083 2.88438 20.0958 1.75751 23.6479C1.5826 24.1969 1.89532 24.7812 2.45399 24.9531C3.01159 25.1187 3.60629 24.8167 3.7812 24.2687C4.15329 23.0948 4.89641 22.0927 5.85048 21.326L7.33565 23.5146C7.71198 24.0687 8.5399 24.0687 8.91623 23.5146L10.2456 21.5542L11.5749 23.5146C11.9512 24.0687 12.7792 24.0687 13.1555 23.5146L14.6004 21.3854C15.5195 22.1448 16.235 23.125 16.5976 24.2687C16.7396 24.7146 17.1573 25 17.6099 25C17.7149 25 17.8198 24.9844 17.9258 24.9531C18.4845 24.7812 18.7962 24.1969 18.6223 23.6479C17.4955 20.0958 14.1064 17.7083 10.1894 17.7083H10.1904Z" fill="white"/>
</svg>
