<svg width="26" height="25" viewBox="0 0 26 25" fill="none" xmlns="http://www.w3.org/2000/svg">
<path d="M12.7612 0C5.86852 0 0.26123 5.60729 0.26123 12.5C0.26123 19.3927 5.86852 25 12.7612 25C19.6539 25 25.2612 19.3927 25.2612 12.5C25.2612 5.60729 19.6539 0 12.7612 0ZM12.7612 22.9167C7.01748 22.9167 2.34456 18.2437 2.34456 12.5C2.34456 10.9437 2.68831 9.46667 3.3029 8.13854L5.03831 9.9625C5.31436 10.2521 5.69665 10.4167 6.09665 10.4167H8.12686C8.42686 10.4167 8.71436 10.5354 8.92686 10.7479L9.3154 11.1365C9.52165 11.3427 9.63727 11.6219 9.63727 11.9125V12.9156C9.63727 13.3167 9.79665 13.7 10.08 13.9833L11.3196 15.2229C11.5769 15.4802 11.7216 15.8292 11.7216 16.1927V18.6562C11.7216 19.2833 12.23 19.7917 12.8571 19.7917H13.0789C13.5216 19.7917 13.9237 19.5344 14.1091 19.1323L16.4435 14.074C16.7216 13.4719 16.5081 12.7583 15.9466 12.4062L13.2779 10.7385C12.9414 10.5281 12.5529 10.4167 12.156 10.4167H10.6654C10.3414 10.4167 10.03 10.2875 9.80081 10.0583L9.18415 9.44167C8.85915 9.11667 8.85915 8.59062 9.18415 8.26667L9.73519 7.71562C9.98831 7.4625 10.3748 7.4 10.6946 7.56042L11.6112 8.01875C11.9873 8.20729 12.4425 8.13333 12.7404 7.83542L12.7435 7.83229C13.0612 7.51458 13.1216 7.02187 12.8904 6.6375L12.0185 5.18333C11.8362 4.87917 11.8404 4.50208 12.0331 4.20417C12.3414 3.72812 12.8456 2.95208 13.4039 2.10417C16.8123 2.3125 19.7841 4.16667 21.53 6.88125L19.8737 7.83646C19.3633 8.13021 19.1102 8.72708 19.2539 9.29792L19.9071 11.9094C20.0008 12.2844 20.2539 12.599 20.5998 12.7708L23.0716 13.9979C22.3435 19.0344 17.9977 22.9167 12.7633 22.9167H12.7612Z" fill="white"/>
</svg>
