<svg width="26" height="25" viewBox="0 0 26 25" fill="none" xmlns="http://www.w3.org/2000/svg">
<path d="M23.1778 5.96474V2.08552C23.1778 1.51051 22.7122 1.04384 22.1362 1.04384C21.5601 1.04384 21.0945 1.51051 21.0945 2.08552V4.55014L15.6746 0.892793C13.9048 -0.300975 11.6173 -0.300975 9.84743 0.892793L2.55566 5.8137C1.11918 6.78351 0.260834 8.39707 0.260834 10.1315V19.7941C0.260834 22.666 2.59733 25.0025 5.46924 25.0025H8.59429C9.17034 25.0025 9.63597 24.5359 9.63597 23.9608V15.6274C9.63597 15.0534 10.1026 14.5857 10.6777 14.5857H14.8444C15.4194 14.5857 15.8861 15.0534 15.8861 15.6274V23.9608C15.8861 24.5359 16.3517 25.0025 16.9277 25.0025H20.0528C22.9247 25.0025 25.2612 22.666 25.2612 19.7941V10.1315C25.2612 8.48457 24.4862 6.94601 23.1778 5.96474ZM23.1778 19.7941C23.1778 21.5171 21.7757 22.9192 20.0528 22.9192H17.9694V15.6274C17.9694 13.9044 16.5673 12.5023 14.8444 12.5023H10.6777C8.95471 12.5023 7.55261 13.9044 7.55261 15.6274V22.9192H5.46924C3.7463 22.9192 2.3442 21.5171 2.3442 19.7941V10.1315C2.3442 9.09083 2.85879 8.12207 3.7213 7.54081L11.0131 2.6199C12.0756 1.90322 13.4464 1.90322 14.5079 2.6199L21.7997 7.54081C22.6622 8.12207 23.1768 9.09083 23.1768 10.1315L23.1778 19.7941Z" fill="#FDBB17"/>
</svg>
