<svg width="26" height="25" viewBox="0 0 26 25" fill="none" xmlns="http://www.w3.org/2000/svg">
<path d="M8.59469 12.5C12.0416 12.5 14.8448 9.69687 14.8448 6.25C14.8448 2.80312 12.0416 0 8.59469 0C5.14776 0 2.34459 2.80312 2.34459 6.25C2.34459 9.69687 5.14776 12.5 8.59469 12.5ZM8.59469 2.08333C10.8926 2.08333 12.7614 3.95208 12.7614 6.25C12.7614 8.54792 10.8926 10.4167 8.59469 10.4167C6.29674 10.4167 4.42796 8.54792 4.42796 6.25C4.42796 3.95208 6.29674 2.08333 8.59469 2.08333ZM10.6781 15.625C10.6781 16.2 10.2114 16.6667 9.63637 16.6667C5.61548 16.6667 2.34459 19.9375 2.34459 23.9583C2.34459 24.5333 1.87792 25 1.30291 25C0.727904 25 0.26123 24.5333 0.26123 23.9583C0.26123 18.7896 4.46754 14.5833 9.63637 14.5833C10.2114 14.5833 10.6781 15.05 10.6781 15.625ZM24.8908 18.4917L22.4261 20.499L23.4459 23.6031C23.5855 24.0229 23.4439 24.4854 23.0928 24.7552C22.7418 25.025 22.2584 25.0438 21.8886 24.8031L19.0198 22.9354L16.199 24.8229C16.024 24.9406 15.8219 24.999 15.6198 24.999C15.4 24.999 15.1802 24.9292 14.9948 24.7906C14.6406 24.526 14.4937 24.0656 14.626 23.6437L15.6062 20.5021L13.1302 18.4875C12.7968 18.2052 12.675 17.7448 12.826 17.3344C12.977 16.924 13.3666 16.6521 13.8031 16.6521H16.9292L18.0355 13.5479C18.1875 13.1406 18.5771 12.8698 19.0115 12.8698C19.4459 12.8698 19.8365 13.1406 19.9876 13.5479L21.0938 16.6521H24.2199C24.6574 16.6521 25.0481 16.926 25.1981 17.3365C25.3481 17.7469 25.2251 18.2083 24.8908 18.4906V18.4917Z" fill="white"/>
</svg>
